<svg width="177" height="92" viewBox="0 0 177 92" fill="none" xmlns="http://www.w3.org/2000/svg">
<path d="M73.2758 0.938687C73.3405 0.665488 73.496 0.423153 73.7163 0.252228C73.9366 0.0813027 74.2082 -0.00773809 74.4856 -9.08294e-06H80.2123L76.1795 10.9387C76.0768 11.1898 75.9037 11.4048 75.6815 11.5572C75.4593 11.7096 75.1977 11.7925 74.9293 11.7958H70.8965L73.2758 0.938687Z" fill="#F6FBFF"/>
<path d="M31.5772 0.081604H38.9976L47.5875 34.3673H41.2559L39.7234 27.3877H30.8513L29.3188 34.3673H22.9873L31.5772 0.081604ZM38.5136 22.1224L35.3681 6.89798C34.7631 4.20411 35.852 9.71431 35.3681 6.89798H35.1663C34.6824 9.71431 34.1179 12.8163 33.4726 15.5102L32.0208 22.1224H38.5136Z" fill="#F6FBFF"/>
<path d="M60.3711 0.081604H66.2993V34.3673H60.3711V0.081604Z" fill="#F6FBFF"/>
<path d="M81.3418 26.2858V16.5306C81.3418 10.5306 84.1244 7.87759 90.4962 7.87759C96.8681 7.87759 99.4894 10.3674 99.4894 15.1429V16.5715C99.4894 20.6531 97.7554 22.4898 93.6016 23.1837L87.0684 24.3674V26.2858C87.0684 28.9797 87.7943 29.7959 90.5366 29.7959C93.2789 29.7959 93.9241 29.0612 93.9241 26.6939V26.1634H99.4088V26.898C99.4088 32.4899 96.7471 35.0613 90.4156 35.0613C84.0841 35.0613 81.3418 32.3266 81.3418 26.2858ZM91.4238 19.1429C93.3596 18.7756 93.9645 18.1633 93.9645 16.5715V15.5918C93.9645 13.8367 93.0773 13.1429 90.5366 13.1429C87.9959 13.1429 87.0684 14.0409 87.0684 16.5715V19.9183L91.4238 19.1429Z" fill="#F6FBFF"/>
<path d="M103.603 27.0204C103.603 21.5102 105.942 18.8571 111.063 18.8571H116.064V15.9999C116.064 13.6734 115.338 12.9796 112.918 12.9796C110.499 12.9796 109.853 13.6734 109.853 15.8775V16.2041H104.329V15.8775C104.329 10.1632 106.788 7.71423 112.918 7.71423C119.048 7.71423 121.75 10.1224 121.75 15.8775V34H117.717L116.871 31.7143C114.95 33.3914 112.545 34.3939 110.015 34.5714C106.063 34.9388 103.603 32.5306 103.603 27.0204ZM111.386 29.755C113.063 29.5626 114.668 28.9603 116.064 28V23.3061H112.031C109.773 23.3061 108.966 24.2857 108.966 26.6531C108.966 29.0204 110.015 29.755 111.386 29.755V29.755Z" fill="#F6FBFF"/>
<path d="M127.518 27.0204V8.6122H133.405V25.8775C133.405 28.2857 133.93 29.347 135.341 29.347C137.004 29.0724 138.595 28.4616 140.019 27.551V8.6122H145.867V34.3673H141.229L140.624 32.0816C138.466 33.6314 135.955 34.6006 133.325 34.8979C129.736 34.8979 127.518 31.9184 127.518 27.0204Z" fill="#F6FBFF"/>
<path d="M75.4939 47.0204C75.4939 46.449 75.2923 46.0408 75.252 45.7551L75.4939 47.0204Z" fill="#F6FBFF"/>
<path d="M0 34.1633H9.88043V70.5714H23.6727V79.9184H0V34.1633Z" fill="#F6FBFF"/>
<path d="M27.665 70C27.665 62.6531 30.6896 59.0204 37.3034 59.0204H43.7559V55.4694C43.7559 53.3061 42.9494 52.6531 40.5297 52.6531C38.11 52.6531 37.3438 53.2653 37.3438 55.4694V55.9592H28.5926V55.4694C28.5926 47.5102 32.1414 44.3265 40.449 44.3265C48.7566 44.3265 52.7895 47.5918 52.7895 55.6734V79.9184H46.216L44.9658 77.2245C42.5177 79.4087 39.3957 80.6639 36.134 80.7755C31.0123 80.6938 27.665 77.5102 27.665 70ZM38.9166 72.5306C40.686 72.3778 42.3705 71.6958 43.7559 70.5714V65.551H39.7231C37.2631 65.551 36.4162 66.7347 36.4162 69.2654C36.4162 71.796 37.5455 72.5306 38.9166 72.5306Z" fill="#F6FBFF"/>
<path d="M70.7356 79.9184H65.614L56.2578 45.3061H66.5818C66.5818 45.3061 66.5818 45.3062 66.5818 45.7551L66.8238 47.0204C67.59 51.5919 69.6871 64.5306 70.534 77.8776L70.7356 79.9184Z" fill="#F6FBFF"/>
<path d="M88.2783 70C88.2783 62.6531 91.3029 59.0204 97.8764 59.0204H104.329V55.4694C104.329 53.3061 103.563 52.6531 101.103 52.6531C98.6426 52.6531 97.957 53.2653 97.957 55.4694V55.9592H89.1655V55.4694C89.1655 47.5102 92.7144 44.3265 101.022 44.3265C109.33 44.3265 113.362 47.5918 113.362 55.6734V79.9184H106.789L105.539 77.2245C103.094 79.4146 99.97 80.6707 96.7069 80.7755C91.6255 80.6938 88.2783 77.5102 88.2783 70ZM99.4895 72.5306C101.259 72.3778 102.944 71.6958 104.329 70.5714V65.551H100.296C97.8361 65.551 96.9892 66.7347 96.9892 69.2654C96.9892 71.796 98.1184 72.5306 99.4895 72.5306Z" fill="#F6FBFF"/>
<path d="M122.396 83.6326H132.72C135.382 83.6326 136.148 82.7755 136.148 79.7959V75.7143C133.841 77.3846 131.115 78.3609 128.284 78.5306C123.041 78.5306 119.613 74.204 119.613 67.6734V56.4898C119.613 48 123.646 44.2449 131.51 44.2449C136.263 44.4402 140.951 45.4333 145.383 47.1837V79.2653C145.383 87.9183 141.35 91.9183 133.285 91.9183H122.557L122.396 83.6326ZM131.187 70.1224C132.883 69.9454 134.527 69.4322 136.027 68.6123V53.3877C134.839 53.0896 133.621 52.9389 132.397 52.9388C129.816 52.9388 128.969 53.7143 128.969 56.3265V66.2041C128.969 69.0204 129.736 70.1224 131.187 70.1224Z" fill="#F6FBFF"/>
<path d="M151.795 68.449V56.2041C151.795 48.0408 155.828 43.9592 164.539 43.9592C173.249 43.9592 177 47.5918 177 54.2857V56.2041C177.135 57.3251 177.038 58.4621 176.716 59.5434C176.395 60.6247 175.855 61.6268 175.131 62.4861C174.407 63.3454 173.515 64.0433 172.51 64.5357C171.506 65.0282 170.412 65.3043 169.297 65.3469L160.99 66.8163V68.449C160.99 71.551 161.675 72.5306 164.66 72.5306C167.644 72.5306 168.128 71.8367 168.128 69.4694V68.8979H176.879V69.8776C176.879 77.3878 172.846 80.9796 164.418 80.9796C155.989 80.9796 151.795 77.0612 151.795 68.449ZM165.385 58.898C167.563 58.5306 168.128 57.8776 168.128 56.1225V55.3061C168.128 53.3061 167.241 52.5714 164.579 52.5714C161.917 52.5714 160.99 53.5101 160.99 56.2857V59.7551L165.385 58.898Z" fill="#F6FBFF"/>
<path d="M71.2598 79.9184H76.3814L85.7375 45.3061H75.4136C75.4136 45.3061 75.4136 45.3062 75.4136 45.7551L75.1716 47.0204C74.4054 51.5919 72.3082 64.5306 71.4614 77.8776L71.2598 79.9184Z" fill="#F6FBFF"/>
</svg>
